<svg xmlns="http://www.w3.org/2000/svg" width="217.754" height="37.119" viewBox="0 0 217.754 37.119">
  <g id="logo" transform="translate(-209.999 -40.5)">
    <g id="Group_104" data-name="Group 104" transform="matrix(0.999, 0.035, -0.035, 0.999, 211.059, 40.5)">
      <g id="Group_103" data-name="Group 103" transform="translate(0 0)">
        <rect id="Rectangle_1" data-name="Rectangle 1" width="3.154" height="29.48" transform="translate(38.465 0.44)" fill="#ffeb00"/>
        <rect id="Rectangle_2" data-name="Rectangle 2" width="3.154" height="29.48" transform="translate(83.375 0.44)" fill="#ffeb00"/>
        <rect id="Rectangle_3" data-name="Rectangle 3" width="3.154" height="29.48" transform="translate(106.569 0.44)" fill="#ffeb00"/>
        <path id="Path_15" data-name="Path 15" d="M15.082,29.48h-3.5L0,0H3.5Z" transform="translate(113.552 0.44)" fill="#ffeb00"/>
        <path id="Path_16" data-name="Path 16" d="M13.329,29.48h-3.5L0,0H3.5Z" transform="translate(174.771 0.44)" fill="#ffeb00"/>
        <path id="Path_17" data-name="Path 17" d="M12.178,29.48H9.023L0,2.4.876,0H2.353Z" transform="translate(194.609 0.44)" fill="#ffeb00"/>
        <rect id="Rectangle_4" data-name="Rectangle 4" width="3.154" height="29.48" transform="translate(144.174 0.44)" fill="#ffeb00"/>
        <rect id="Rectangle_5" data-name="Rectangle 5" width="3.154" height="17.238" transform="translate(60.943 6.646)" fill="#ffeb00"/>
        <rect id="Rectangle_6" data-name="Rectangle 6" width="3.103" height="15.556" transform="translate(76.499 0.441) rotate(90)" fill="#ffeb00"/>
        <rect id="Rectangle_7" data-name="Rectangle 7" width="3.103" height="15.556" transform="translate(76.499 26.817) rotate(90)" fill="#ffeb00"/>
        <rect id="Rectangle_8" data-name="Rectangle 8" width="3.103" height="8.663" transform="translate(75.886 12.344) rotate(90)" fill="#ffeb00"/>
        <rect id="Rectangle_9" data-name="Rectangle 9" width="3.154" height="17.238" transform="translate(155.657 6.646)" fill="#ffeb00"/>
        <rect id="Rectangle_10" data-name="Rectangle 10" width="3.103" height="15.556" transform="translate(171.212 0.441) rotate(90)" fill="#ffeb00"/>
        <rect id="Rectangle_11" data-name="Rectangle 11" width="3.103" height="15.556" transform="translate(171.212 26.817) rotate(90)" fill="#ffeb00"/>
        <rect id="Rectangle_12" data-name="Rectangle 12" width="3.103" height="8.663" transform="translate(170.599 12.344) rotate(90)" fill="#ffeb00"/>
        <path id="Path_18" data-name="Path 18" d="M14.3,17.546,0,0V4.961L14.3,22.507Z" transform="translate(89.428 3.986)" fill="#ffeb00"/>
        <path id="Path_19" data-name="Path 19" d="M1.752,25.837,11.9,0h-3.5L0,21.375Z" transform="translate(128.342 0.44)" fill="#ffeb00"/>
        <path id="Path_20" data-name="Path 20" d="M1.752,25.514,10.255,0H6.75L0,20.255Z" transform="translate(206.587 0.44)" fill="#ffeb00"/>
        <path id="Path_21" data-name="Path 21" d="M1.577,25.284,8.9,3.3,8.424,0H6.849L0,20.551Z" transform="translate(187.767 0.44)" fill="#ffeb00"/>
        <path id="Path_22" data-name="Path 22" d="M1.143,16.557H0v-3.1H1.143A5.225,5.225,0,0,0,6.4,8.279,5.225,5.225,0,0,0,1.143,3.1H0V0H1.143A8.358,8.358,0,0,1,9.559,8.279,8.358,8.358,0,0,1,1.143,16.557Z" transform="translate(44.577 0.44)" fill="#ffeb00"/>
        <path id="Path_23" data-name="Path 23" d="M3.179,13.512A12.229,12.229,0,0,1,15.353,3.1,12.229,12.229,0,0,1,27.527,13.512h3.179A15.36,15.36,0,0,0,15.353,0,15.36,15.36,0,0,0,0,13.512Z" fill="#ffeb00"/>
        <path id="Path_24" data-name="Path 24" d="M3.179,0A12.229,12.229,0,0,0,15.353,10.409,12.229,12.229,0,0,0,27.527,0h3.179A15.36,15.36,0,0,1,15.353,13.512,15.36,15.36,0,0,1,0,0Z" transform="translate(0 16.846)" fill="#ffeb00"/>
      </g>
    </g>
    <g id="Group_110" data-name="Group 110" transform="translate(210 44.275)">
      <g id="Group_103-2" data-name="Group 103" transform="translate(0 0)">
        <rect id="Rectangle_1-2" data-name="Rectangle 1" width="3.154" height="29.48" transform="translate(38.465 0.44)"/>
        <rect id="Rectangle_2-2" data-name="Rectangle 2" width="3.154" height="29.48" transform="translate(83.375 0.44)"/>
        <rect id="Rectangle_3-2" data-name="Rectangle 3" width="3.154" height="29.48" transform="translate(106.569 0.44)"/>
        <path id="Path_15-2" data-name="Path 15" d="M756.767,794.566h-3.5l-11.577-29.48h3.5Z" transform="translate(-628.133 -764.646)"/>
        <path id="Path_16-2" data-name="Path 16" d="M929.69,794.566h-3.5l-9.825-29.48h3.5Z" transform="translate(-741.589 -764.646)"/>
        <path id="Path_17-2" data-name="Path 17" d="M985.139,794.566h-3.154l-9.023-27.076.876-2.4h1.477Z" transform="translate(-778.353 -764.646)"/>
        <rect id="Rectangle_4-2" data-name="Rectangle 4" width="3.154" height="29.48" transform="translate(144.174 0.44)"/>
        <rect id="Rectangle_5-2" data-name="Rectangle 5" width="3.154" height="17.238" transform="translate(60.943 6.646)"/>
        <rect id="Rectangle_6-2" data-name="Rectangle 6" width="3.103" height="15.556" transform="translate(76.499 0.441) rotate(90)"/>
        <rect id="Rectangle_7-2" data-name="Rectangle 7" width="3.103" height="15.556" transform="translate(76.499 26.817) rotate(90)"/>
        <rect id="Rectangle_8-2" data-name="Rectangle 8" width="3.103" height="8.663" transform="translate(75.886 12.344) rotate(90)"/>
        <rect id="Rectangle_9-2" data-name="Rectangle 9" width="3.154" height="17.238" transform="translate(155.657 6.646)"/>
        <rect id="Rectangle_10-2" data-name="Rectangle 10" width="3.103" height="15.556" transform="translate(171.212 0.441) rotate(90)"/>
        <rect id="Rectangle_11-2" data-name="Rectangle 11" width="3.103" height="15.556" transform="translate(171.212 26.817) rotate(90)"/>
        <rect id="Rectangle_12-2" data-name="Rectangle 12" width="3.103" height="8.663" transform="translate(170.599 12.344) rotate(90)"/>
        <path id="Path_18-2" data-name="Path 18" d="M687.148,792.918l-14.3-17.546v4.961l14.3,17.546Z" transform="translate(-583.424 -771.386)"/>
        <path id="Path_19-2" data-name="Path 19" d="M785.639,790.923l10.147-25.837h-3.5l-8.394,21.375Z" transform="translate(-655.544 -764.646)"/>
        <path id="Path_20-2" data-name="Path 20" d="M1008.891,790.6l8.5-25.514h-3.5l-6.75,20.255Z" transform="translate(-800.552 -764.646)"/>
        <path id="Path_21-2" data-name="Path 21" d="M955.017,790.369l7.328-21.988-.481-3.3h-1.575l-6.849,20.551Z" transform="translate(-765.673 -764.646)"/>
        <path id="Path_22-2" data-name="Path 22" d="M546.024,781.643h-1.143v-3.1h1.143a5.177,5.177,0,1,0,0-10.352h-1.143v-3.1h1.143a8.28,8.28,0,1,1,0,16.557Z" transform="translate(-500.304 -764.646)"/>
        <path id="Path_23-2" data-name="Path 23" d="M420.87,777.321a12.323,12.323,0,0,1,24.348,0H448.4a15.478,15.478,0,0,0-30.706,0Z" transform="translate(-417.691 -763.809)"/>
        <path id="Path_24-2" data-name="Path 24" d="M420.87,812.674a12.323,12.323,0,0,0,24.348,0H448.4a15.478,15.478,0,0,1-30.706,0Z" transform="translate(-417.691 -795.828)"/>
      </g>
    </g>
  </g>
</svg>
